<?xml version="1.0" encoding="utf-8"?>
<!-- Generator: Adobe Illustrator 16.0.0, SVG Export Plug-In . SVG Version: 6.00 Build 0)  -->
<!DOCTYPE svg PUBLIC "-//W3C//DTD SVG 1.1//EN" "http://www.w3.org/Graphics/SVG/1.1/DTD/svg11.dtd">
<svg version="1.1" id="Layer_1" xmlns="http://www.w3.org/2000/svg" xmlns:xlink="http://www.w3.org/1999/xlink" x="0px" y="0px"
	 width="120px" height="120px" viewBox="0 0 120 120" enable-background="new 0 0 120 120" xml:space="preserve">
<g>
	<path fill="#221F1F" d="M78.213,30.158c0.104,0.002,0.105,0.107,0.105,0.219C78.197,30.372,78.115,30.251,78.213,30.158z"/>
	<path fill="#221F1F" d="M74.965,62.088c0.143-0.072,0.16,0.287,0.01,0.225C74.971,62.24,74.969,62.166,74.965,62.088z"/>
	<path fill="#221F1F" d="M54.714,68.361c0.193,0.027,0.049,0.254,0.061,0.311C54.603,68.643,54.775,68.527,54.714,68.361z"/>
	<path fill="#221F1F" d="M54.723,69.654c0.098-0.022,0.125,0.027,0.19,0.037c0.004,0.188-0.175,0.223-0.171,0.408
		C54.603,70.004,54.799,69.839,54.723,69.654z"/>
	<path fill="#221F1F" d="M53.496,70.861c0.211,0.152,0.086,0.57-0.165,0.588C53.405,71.246,53.528,71.04,53.496,70.861z"/>
	<g>
		<path fill="#221F1F" d="M50.321,23.396c0.031-0.01,0.054,0.037,0.068,0.009c-0.007-0.004-0.015-0.004-0.014-0.015
			c0.029,0,0.056,0.024,0.086,0.039l0.062-0.112C50.451,23.345,50.363,23.321,50.321,23.396z"/>
		<path fill="#221F1F" d="M50.547,25.63c0.013-0.005,0.02,0.014,0.025,0c-0.003,0-0.006,0-0.006,0c0.011,0,0.022,0.004,0.036,0.01
			l0.018-0.034C50.595,25.614,50.564,25.606,50.547,25.63z"/>
	</g>
	<path fill="#221F1F" d="M78.318,30.376c0-0.111-0.002-0.216-0.105-0.219C78.115,30.251,78.197,30.372,78.318,30.376z"/>
	<path fill="#221F1F" d="M54.775,68.672c-0.012-0.057,0.132-0.281-0.061-0.311C54.775,68.527,54.603,68.643,54.775,68.672z"/>
	<path fill="#221F1F" d="M73.986,25.684c0.088,0.105,0.356,0.035,0.35,0.342C74.09,26.042,74.045,25.859,73.986,25.684z"/>
	<path fill="#221F1F" d="M54.192,70.521c-0.009,0.145-0.141,0.326-0.163,0.543C53.933,70.928,54.036,70.59,54.192,70.521z"/>
	<path fill="#221F1F" d="M55.329,70.525c0.068,0,0.134,0,0.143-0.055c0.152,0.182-0.229,0.26-0.218,0.457
		C55.139,70.84,55.354,70.68,55.329,70.525z"/>
	<polyline fill="#221F1F" points="71.947,90.971 63.047,92.615 63.385,96.426 70.764,94.746 70.828,96.936 75.086,96.854 
		74.727,90.536 	"/>
	<polyline fill="#221F1F" points="87.848,87.602 89.238,90.202 81.654,92.971 82.534,94.955 78.891,96.671 76.725,91.493 	"/>
	<g>
		<path fill="#221F1F" d="M70.094,86.338c0.01,0.129-0.154,0.109-0.121,0.258C70.059,86.68,70.084,86.529,70.094,86.338z"/>
		<path fill="#221F1F" d="M70.104,86.323c0-0.011-0.006-0.017-0.006-0.022c0,0.014,0,0.023-0.004,0.037
			C70.094,86.328,70.105,86.328,70.104,86.323z"/>
		<path fill="#221F1F" d="M87.609,61.117c-0.077-7.131-1.433-13.838-3.773-20.569c-0.67-1.927-1.831-4.239-2.65-6.603
			c-0.145-0.118-0.252-0.251-0.176-0.506c-0.23-0.134-0.387-0.343-0.589-0.514c-0.341-0.688-0.866-1.19-1.312-1.774
			c-0.066-0.504-0.657-0.683-0.618-1.138c-0.497-0.327-0.845-0.814-1.149-1.338c0.059,0.011,0.16-0.135,0.043-0.137
			c-0.021,0.053-0.047,0.102-0.088,0.137c-0.729-0.746-1.318-1.633-2.184-2.233c0.076-0.093-0.01-0.058-0.012-0.18
			c-0.233,0.039-0.386-0.253-0.527-0.157c0.047,0.01,0.168,0.16,0.059,0.176c-0.086-0.055-0.193-0.085-0.199-0.216
			c0.014-0.077,0.129-0.281,0.031-0.314c-0.175-0.009-0.469-0.245-0.594-0.555c-0.223,0.127-0.033,0.391-0.025,0.447
			c-0.47-0.308-0.445-0.767-1.033-0.855c-0.408-0.059-0.797,0.294-1.277,0.051c-0.28,0.269-0.592,0.065-0.794,0.342
			c-0.146-0.255-0.448,0.074-0.705,0.162c-0.022-0.053-0.054-0.099-0.097-0.13c-0.131,0.158-0.379,0.215-0.508,0.376
			c0,0.241-0.049,0.44-0.16,0.587c-0.604,0.517-1.098,1.136-1.484,1.84c-0.439,0.008-0.439,0.391-0.589,0.652
			c-0.33,0.027-0.443,0.242-0.447,0.552c-0.326,0.073-0.536,0.251-0.494,0.644c-0.304,0.124-0.623,0.228-0.591,0.646
			c-0.209,0.161-0.475,0.272-0.441,0.642c-0.504,0.28-0.602,0.91-0.986,1.287c-0.014-0.032-0.006-0.087-0.055-0.086
			c-0.301,0.581-0.609,1.156-1.115,1.56c-0.141,0.304-0.289,0.598-0.477,0.858c-0.306-0.38-0.59-0.737-0.906-0.992
			c-0.193-0.154-0.353-0.172-0.508-0.381c-0.135-0.183-0.142-0.428-0.359-0.573c-0.382-0.061-0.417-0.463-0.508-0.624
			c-0.115-0.199-0.365-0.299-0.541-0.471c-0.233-0.236-0.352-0.522-0.624-0.575c0.069-0.332-0.258-0.36-0.482-0.587
			c-0.121-0.103,0.03-0.178-0.09-0.278c-0.313-0.048-0.384-0.344-0.51-0.502c-0.224-0.277-0.542-0.494-0.806-0.773
			c-0.078-0.077-0.083-0.2-0.154-0.279c-0.412-0.499-0.865-0.832-1.076-1.311c-0.173-0.131-0.956-0.623-1.655-1.084
			c-0.005-0.067-0.015-0.136-0.023-0.202c-0.016-0.008-0.018-0.025-0.041-0.023c0.008-0.02,0.008-0.045,0.019-0.052
			c-0.049-0.065-0.016-0.185-0.093-0.239c-0.005-0.033,0.032-0.006,0.02-0.039c-0.068-0.103-0.073-0.306-0.19-0.331
			c0-0.079-0.067-0.105-0.042-0.182c-0.058-0.038-0.118-0.078-0.154-0.137c0.003-0.025,0.03-0.018,0.029-0.052
			c-0.066-0.047-0.102-0.081-0.177-0.094c0.005-0.011,0.021-0.011,0.017-0.033c-0.235-0.157-0.45-0.389-0.686-0.508
			c-0.009-0.053-0.057-0.059-0.081-0.09c-0.145-0.003-0.214-0.165-0.38-0.175c-0.099-0.096-0.208-0.096-0.329-0.156
			c-0.094-0.047-0.194-0.073-0.305-0.126c-0.022,0.01-0.057,0.006-0.095,0.003c-0.019-0.006-0.012-0.047-0.03-0.057
			c-0.1-0.001-0.187-0.06-0.297-0.08c-0.024-0.051-0.122-0.031-0.124-0.105c-0.103,0.056-0.258-0.011-0.341-0.053
			c-0.023-0.005-0.029,0.013-0.019,0.03c-0.032,0-0.059-0.005-0.08-0.017c-0.006-0.121-0.126-0.053-0.183-0.096
			c-0.111,0.038-0.2-0.028-0.294-0.078c0.035-0.054,0.062-0.104,0.097-0.153l-19.855,0.518c0.058,0.056,0.159,0.084,0.178,0.164
			c0.027,0.102-0.107,0.072-0.102,0.156c0.232,0.493,0.057,0.958,0.261,1.488c0.096-0.013,0.032,0.081,0.151,0.05
			c-0.057,0.263-0.158,0.413,0.159,0.573c0.041,0.109-0.043,0.147-0.078,0.25c0.194,0.356,0.189,0.851,0.5,1.13
			c-0.044,0.223,0.11,0.317,0.156,0.481c0.088,0.024,0.094,0.024,0.186,0.006c0.068,0.329,0.175,0.75,0.541,0.994
			c-0.083,0.196,0.107,0.463,0.344,0.443c-0.115,0.228,0.124,0.338,0.157,0.528c0.067,0.005,0.125,0.005,0.192,0.006
			c0.175,0.16,0.063,0.38,0.186,0.53c0.119,0.146,0.435,0.165,0.449,0.355c0.043-0.001,0.086-0.001,0.09,0.027
			c0.126-0.004-0.031-0.064,0.126-0.02c0.059,0.083,0.056,0.339,0.229,0.417c0.062,0.009,0.093-0.003,0.093-0.042
			c0.257,0.073,0.066,0.448,0.479,0.421c0.015,0.248,0.245,0.305,0.441,0.379c-0.037,0.149,0.125,0.163,0.172,0.255
			c0.039-0.016,0.09-0.028,0.157-0.016c-0.02,0.209,0.343,0.36,0.642,0.314c0.142,0.069,0.214,0.324,0.425,0.217
			c0.091,0.125,0.243,0.308,0.395,0.216c0.068,0.066,0.121,0.136,0.169,0.211c0.167,0.03,0.229-0.025,0.316-0.058
			c0.25,0.104,0.509,0.149,0.802,0.205c0.109,0.023,0.258-0.045,0.377-0.033c0.304,0.03,0.29,0.101,0.589,0.041
			c0.24-0.048,0.481-0.066,0.585,0.107c0.169,0.007,0.223-0.076,0.349-0.103c0.012,0.1,0.292,0.041,0.4,0.15
			c0.106-0.025,0.237-0.032,0.287-0.106c0.563,0.198,1.131,0.04,1.685-0.017c0.016-0.043,0.069-0.056,0.069-0.113
			c0.055,0.014,0.131,0.019,0.152,0.05c0.191-0.142,0.548-0.051,0.702-0.251c0.1-0.025,0.02,0.076,0.124,0.049
			c0.299-0.195,0.893-0.207,0.966-0.518c0.231-0.001,0.308-0.184,0.533-0.12c0.113-0.152,0.219-0.318,0.401-0.419
			c0.07,0.01,0.052,0.082,0.153,0.072c0.128-0.171,0.236-0.262,0.275-0.468c0.03,0.014,0.028,0.052,0.09,0.047
			c0.452-0.632,1.125-1.211,1.474-1.845c0.153-0.025,0.173-0.149,0.263-0.22c0.002-0.281,0.267-0.458,0.406-0.715
			c0.183,0.18,0.369,0.354,0.65,0.478c0.497,0.215,1.022,0.363,1.562,0.415c0.259,0.024,0.773,0.11,0.984,0.011
			c0.133-0.065,0.322-0.056,0.428-0.162c0.083,0.015,0.122-0.035,0.184-0.052c0.007-0.03,0.007-0.031,0.002-0.062
			c0.124-0.02,0.283-0.055,0.38-0.174c0,0,0.002-0.001,0.004,0c0.013,0.01,0.015,0.024,0.032,0.034
			c-0.063,0.102-0.121,0.022-0.179,0.1c0.203,0.108,0.254,0.224,0.476,0.288c0.175,0.398,0.491,0.749,0.837,0.927
			c0.138,0.299,0.292,0.634,0.599,0.719c0.072,0.106,0.058,0.205,0.125,0.309c1.853,1.977,3.798,4.084,5.89,6.432
			c-0.211,0.34-0.401,0.705-0.512,1.138c-0.107,0.061-0.087-0.005-0.233,0.053c-0.169,0.73-0.849,1.338-0.995,2.224
			c-0.46,0.213-0.399,0.88-0.753,1.188c-0.004,0.086,0.06,0.098,0.057,0.179c-0.381,0.288-0.371,0.825-0.561,1.271
			c-0.098,0.227-0.32,0.404-0.399,0.638c-0.122,0.362-0.022,0.828-0.38,1.041c0.061-0.16-0.144-0.279-0.019-0.358
			c0.013,0.036,0.01,0.09,0.055,0.09c0.001-0.25-0.099-0.49-0.224-0.735c-0.3,1.787-1.016,3.475-1.625,5.211
			c-0.91,2.572-1.377,5.344-1.447,8.072c-0.091,3.336,0.875,6.959,1.172,10.467c0.032-0.029,0.056-0.07,0.095-0.098
			c0.055,0.063,0.059,0.108,0.005,0.181c0.382-0.067,0.175-0.653,0.25-0.771c0.204,0.488,0.583,0.973,0.346,1.415
			c0.172-0.079,0.16-0.25,0.421-0.149c-0.042,0.369,0.266,0.38,0.225,0.748c0.115-0.008,0.14-0.088,0.233-0.008
			c-0.033,0.246,0.297,0.5,0.369,0.789c0.002-0.053,0.07-0.053,0.137-0.049c0.188,0.6,0.807,1.196,1.24,1.244
			c0.029,0.105,0.074,0.205,0.116,0.305c0.591,0.547,1.122,1.194,1.601,1.846c0.01-0.006,0.029-0.008,0.04,0.013
			c0.063,0.093,0.103,0.17,0.155,0.256c0.12,0.171,0.237,0.336,0.352,0.504c0.046-0.054,0.12-0.079,0.184-0.118
			c0.176,0.286,0.465,0.457,0.74,0.643c0.009,0.195,0.25,0.552,0.593,0.558c0.143,0.241,0.274,0.493,0.637,0.511
			c0.011,0.316,0.383,0.26,0.543,0.426c-0.01,0.104,0.016,0.168,0.057,0.219c0.838,0.263,1.209,0.924,2.316,0.98
			c0.109,0.078,0.244,0.123,0.297,0.258c0.113,0.015,0.1-0.086,0.234-0.055c0.479,0.478,1.232,0.402,1.78,0.646
			c0.147,0.272,0.464,0.202,0.769,0.146c0.098,0.04,0.191,0.088,0.287,0.123c0.342-0.189,0.625,0.116,1.039-0.037
			c0.019,0.062,0.088,0.07,0.104,0.129c0.15,0.937-0.059,1.763,0.105,2.448c0.061,0.247,0.188,0.358,0.17,0.62
			c-0.015,0.227-0.196,0.42-0.114,0.672c0.305,0.291,0.028,0.622-0.011,0.805c-0.045,0.228,0.102,0.465,0.125,0.709
			c0.035,0.328-0.076,0.627,0.135,0.84c-0.027,0.021-0.032,0.037-0.051,0.06c-0.008-0.065-0.019-0.104-0.019-0.062
			c0,0.024,0.007,0.049,0.007,0.074c-0.176,0.185,0.004,0.395,0.043,0.668c0.002-0.065,0.012-0.121,0.008-0.193
			c0.037,0.186,0.072,0.372,0.086,0.561c0.009,0.109-0.078,0.207-0.078,0.315c-0.004,0.646,0.152,1.194-0.021,1.694
			c0.108,0.375,0.146,1.052,0.156,1.469c0.507,0.133,0.826,0.458,1.312,0.615c0.119,0.011,0.028-0.172,0.183-0.14
			c0.599,0.132,0.483-0.353,0.834-0.437c0.173-0.01,0.024,0.316,0.202,0.306c0.154-0.124,0.18-0.356,0.41-0.416
			c0.115,0.021,0.104,0.168,0.289,0.123c0.176-0.092,0.246-0.272,0.41-0.375c0.139,0,0.088,0.188,0.241,0.169
			c-0.015-0.094,0.036-0.143,0.14-0.138c0.424,0.227,0.618-0.187,0.537-0.646c0.135-0.042,0.127,0.06,0.238,0.037
			c-0.1-0.213-0.059-0.335-0.211-0.528c0.148-0.414,0.13-0.887-0.057-1.246c0.109-0.313,0.222-0.672,0.009-0.938
			c0.021-0.125,0.104-0.19,0.128-0.315c-0.01-0.123-0.018-0.227-0.021-0.344c0.596,1.691,1.205,3.436,1.834,5.319l3.666-1.679
			c-0.396-0.86-0.47-1.698-0.8-2.317c-0.118-0.222-0.257-0.297-0.317-0.549c-0.053-0.222,0.037-0.453-0.104-0.675
			c-0.327-0.203-0.198-0.586-0.219-0.771c-0.028-0.229-0.22-0.422-0.312-0.646c-0.125-0.309-0.119-0.621-0.35-0.775
			c0.197-0.275-0.096-0.432-0.207-0.729c-0.075-0.143,0.094-0.151,0.021-0.295c-0.267-0.166-0.215-0.465-0.268-0.66
			c-0.1-0.344-0.307-0.668-0.439-1.026c-0.039-0.104,0.004-0.22-0.028-0.319c-0.188-0.621-0.47-1.105-0.476-1.63
			c-0.152-0.255-0.312-0.676-0.439-1.045c0.025-0.01,0.033-0.026,0.064-0.032c0.084-0.021,0.116,0.064,0.191,0.034
			c0.118-0.045,0.212-0.187,0.318-0.233c0.279-0.125,0.537-0.121,0.691-0.383c0.155,0.051,0.139-0.017,0.332-0.016
			c0.498-0.521,1.084-0.712,1.559-1.221c0.064-0.002,0.048,0.076,0.101,0.087c0.479-0.374,0.824-0.83,1.326-1.075
			c-0.047-0.346,0.291-0.352,0.553-0.424c0.068-0.154-0.016-0.442,0.168-0.499c0.224,0.017,0.224-0.104,0.468-0.152
			c-0.006-0.257,0.086-0.604,0.45-0.552c0.192-0.146,0.087-0.555,0.304-0.682c0.141-0.039,0.139,0.072,0.285,0.033
			c0.076-0.217,0.26-0.342,0.256-0.636c0.344-0.094,0.489-0.304,0.396-0.685c0.574-0.199,0.472-0.719,0.661-1.228
			c0.533-0.159,0.635-0.896,0.648-1.364c0.469-0.535,0.289-1.64,0.854-2.086c0.087-0.424,0.151-1.125,0.262-1.662
			c0.443-0.213,0.267-0.748,0.328-1.17c0.049-0.342,0.334-0.67,0.19-0.988c0.117-0.131,0.113-0.363,0.168-0.543
			c-0.055-0.098-0.232-0.074-0.198-0.26c0.319-0.562,0.146-1.179,0.349-1.709c0.221,0.006,0.192,0.273,0.305,0.389
			c-0.053,0.386,0.022,0.797,0.141,1.203C87.617,61.859,87.615,61.492,87.609,61.117z M51.879,26.836
			c-0.021,0.008-0.017,0.038-0.01,0.064c0.006,0.035-0.004,0.034-0.007,0.067c-0.003,0.012,0.007,0.03,0.002,0.041
			c-0.006,0.033-0.014,0.062-0.026,0.089c0.005,0.01,0.008,0.015,0.005,0.034c-0.005,0.008-0.019,0.012-0.024,0.02
			c0.01,0.018-0.013,0.034-0.027,0.043c0.015,0.024-0.019,0.031-0.032,0.049c0.007,0.033-0.013,0.071-0.038,0.068
			c0,0.007,0,0.013,0,0.02c-0.011,0.003-0.011,0.021-0.031,0.017c-0.009,0.023-0.016,0.047-0.048,0.05
			c0.004,0.042-0.045,0.024-0.054,0.053c0.006,0,0.009,0.002,0.006,0.007c-0.012,0.021-0.04,0.019-0.049,0.025
			c-0.008,0.019,0,0,0,0.014c-0.006,0-0.006,0.006-0.006,0.01c-0.022,0.003-0.022,0.038-0.045,0.052
			c-0.021,0.011-0.041,0-0.066,0.016c0,0.01,0,0.018,0,0.024c-0.024,0.002-0.037,0.029-0.067,0.017
			c0.002,0.026-0.028,0.045-0.056,0.037c-0.03,0.041-0.083,0.051-0.124,0.056c0.005,0.012,0.003,0.012,0,0.021
			c-0.019,0.006-0.033,0.021-0.059,0.02c-0.035,0.032-0.102,0.03-0.144,0.049c-0.067,0.034-0.236,0.008-0.323-0.002
			c-0.18-0.018-0.353-0.067-0.514-0.139c-0.227-0.097-0.314-0.258-0.451-0.445l0.911-1.574c-0.013-0.006-0.025-0.01-0.036-0.01
			c0,0,0.003,0,0.006,0c-0.006,0.014-0.012-0.005-0.025,0c0.018-0.024,0.048-0.016,0.073-0.024l-0.018,0.034
			c0.03,0.015,0.06,0.047,0.102,0.034c0.015,0.013,0.061-0.008,0.061,0.031c0.005,0.003,0.017,0.005,0.024,0.005
			c-0.003-0.005,0-0.01,0.008-0.01c0.025,0.013,0.079,0.037,0.112,0.018c0.004,0.025,0.032,0.017,0.041,0.035
			c0.036,0.006,0.066,0.027,0.096,0.027c0.008,0.004,0.006,0.016,0.013,0.019c0.009,0,0.022,0.002,0.03-0.001
			c0.038,0.018,0.07,0.024,0.103,0.042c0.04,0.018,0.075,0.018,0.104,0.049c0.057,0.004,0.078,0.056,0.127,0.058
			c0.007,0.011,0.027,0.013,0.028,0.032c0.075,0.038,0.148,0.114,0.225,0.165c0,0.006-0.005,0.006-0.005,0.01
			c0.024,0.007,0.035,0.019,0.06,0.031c0,0.013-0.014,0.011-0.014,0.018c0.014,0.019,0.037,0.034,0.053,0.045
			c-0.008,0.023,0.015,0.035,0.015,0.059c0.036,0.009,0.036,0.075,0.064,0.11c0,0.01-0.008,0.002-0.007,0.012
			c0.025,0.018,0.011,0.059,0.029,0.081c-0.004,0-0.004,0.008-0.004,0.015c0.004,0,0.005,0.008,0.015,0.008
			c0.003,0.062,0.024,0.126,0,0.188c0.008,0.004,0.008,0.019,0.008,0.031c-0.013,0.013-0.008,0.042-0.019,0.046
			C51.87,26.811,51.883,26.818,51.879,26.836z M69.589,75.727c-0.862-0.004-1.341-0.645-2.063-0.637
			c-0.266-0.259-0.723-0.089-0.875-0.498c-0.219,0.051-0.291-0.049-0.432-0.074c0.016-0.14-0.076-0.172-0.105-0.262
			c-0.838-0.561-1.51-1.283-2.356-1.828c0.056-0.406-0.606-0.462-0.7-0.863c-0.961-0.616-1.359-1.809-2.197-2.549
			c-0.002-0.197-0.125-0.271-0.164-0.44c0.76-0.125,1.527,0.235,2.19,0.185c-0.071,0.229,0.253,0.051,0.249,0.211
			c0.303-0.312,0.846,0.215,1.09,0.006c0.746,0.366,1.774,0.211,2.729,0.651c0.146,0.026,0.135-0.082,0.28-0.058
			c0.3,0.254,0.55,0.266,1.004,0.187c0.447,0.431,0.927,0.129,1.34,0.306C69.541,72.105,69.668,73.998,69.589,75.727z
			 M69.922,64.873c-0.254,0-0.222,0.443-0.074,0.539c-0.117,0.15-0.219,0.324-0.158,0.629c-0.207,0.01-0.229,0.176-0.371,0.236
			c-0.153-0.094-0.211-0.275-0.438-0.295c-0.06,0.047-0.093,0.123-0.134,0.183c-0.139-0.044-0.255-0.113-0.342-0.208
			c-0.178,0.005-0.135,0.197-0.375,0.148c0.004-0.109,0-0.215-0.055-0.265c-0.104,0.021-0.131-0.026-0.192-0.039
			c-0.161-0.012-0.067,0.199-0.277,0.146c-0.209,0.039-0.11-0.229-0.252-0.256c-0.239-0.01-0.151,0.264-0.414,0.236
			c-0.013-0.109-0.021-0.215,0.037-0.269c-0.114-0.039-0.235-0.069-0.388-0.076c-0.135,0.022-0.079,0.215-0.176,0.274
			c-0.215-0.012-0.234-0.223-0.302-0.39c-0.177,0.185-0.377-0.046-0.573-0.114c-0.174,0.052-0.258,0.183-0.416,0.242
			c-0.082-0.074-0.035-0.272-0.158-0.307c-0.201-0.05-0.141,0.133-0.228,0.188c-0.188-0.004-0.228-0.172-0.297-0.301
			c-0.185,0.01-0.144,0.217-0.271,0.279c-0.147,0.025-0.189-0.055-0.287-0.078c-0.049-0.124,0.057-0.119,0.037-0.227
			c-0.096-0.078-0.086,0.029-0.236,0.01c-0.1,0.016-0.004,0.193-0.086,0.227c-0.221-0.01-0.329-0.133-0.348-0.342
			c-0.346,0.125-0.576,0.006-0.767-0.15c-0.167,0.032-0.276,0.021-0.319,0.236c-0.301-0.152-0.715-0.043-0.871-0.413
			c-0.232,0.187-0.412,0.134-0.618-0.021c-0.155-0.034-0.06,0.148-0.134,0.186c-0.465-0.041-0.954-0.017-1.121,0.4
			c-0.758-0.197-0.496-1.248-0.927-1.705c0.012-0.104,0.046-0.186,0.083-0.271c-0.342-0.981,0.124-1.645-0.112-2.492
			c0.119-0.176,0.159-0.374,0.167-0.587c0.056-1.412,0.338-3.081,0.706-4.398c1.051,0.663,2.41,1.013,3.213,1.929
			c0.249-0.051,0.432,0.196,0.635,0.331c0.146-0.014,0.202-0.109,0.371-0.104c0.006,0.074,0.006,0.148,0.011,0.223
			c0.455,0.284,1.096,0.647,1.592,0.608c0.139,0.312,0.391,0.247,0.772,0.282c0.045,0.09,0.146,0.128,0.147,0.262
			c0.75-0.017,0.813,0.659,1.549,0.652c0.246,0.475,0.722,0.44,1.031,0.808c0.086,0.003,0.098-0.059,0.188-0.051
			c0.302,0.328,0.723,0.535,1.122,0.758C70.055,62.689,69.693,63.818,69.922,64.873z M70.116,53.179
			c0.012,0.113,0.188,0.056,0.2,0.171c-0.176,0.314-0.422,0.921-0.084,1.297c-0.15,0.137-0.033,0.514-0.213,0.631
			c-0.437-0.062-0.82-0.184-1.017-0.497c-0.146,0.029-0.196-0.099-0.235,0.055c-0.354-0.49-1.16-0.438-1.64-0.694
			c-0.146,0.002-0.11,0.164-0.278,0.143c-0.024-0.749-1.181-0.23-1.457-0.79c-0.191-0.021-0.184,0.126-0.375,0.102
			c0.116-0.216-0.207-0.326-0.441-0.339c-0.102,0.013-0.096,0.117-0.084,0.228c-0.213,0.014-0.207-0.192-0.207-0.393
			c-0.154,0.011-0.364-0.029-0.326,0.147c-0.162-0.379-0.684-0.39-0.883-0.725c-0.238,0.039-0.385-0.012-0.525-0.069
			c0.062-0.03,0-0.173,0.088-0.183c-0.088-0.05-0.168,0.172-0.377,0.058c-0.068,0.044,0.014,0.069-0.039,0.182
			c-0.193-0.099-0.309-0.277-0.443-0.429c-0.129,0.003-0.118,0.127-0.186,0.185c-0.238-0.069-0.115-0.502-0.402-0.519
			c-0.168-0.029-0.178,0.073-0.33,0.058c-0.065-0.178-0.172-0.274-0.351-0.432c0.175-0.525,0.224-1.079,0.452-1.625
			c0.164-0.076,0.035,0.148,0.146,0.128c0.072-0.18,0.309-0.216,0.263-0.501c-0.128-0.026,0.04,0.208-0.086,0.181
			c-0.095-0.326,0.329-0.938,0.464-1.355c0.043-0.001,0.038,0.052,0.047,0.087c-0.102-0.356,0.402-0.673,0.191-1.122
			c0.287-0.167,0.486-0.632,0.43-0.954c0.016-0.061,0.117-0.042,0.189-0.053c0.019-0.095-0.072-0.081-0.146-0.081
			c0.068-0.256,0.268-0.396,0.352-0.639c0.051,0.007-0.84,0.959-0.776,0.958c0.321-0.27,0.291-0.808,0.478-1.089
			c0.057,0.004,0.038,0.079,0.049,0.133c0.422-0.202,0.119-0.639,0.483-0.957c0.017,0.072-0.043,0.078-0.043,0.136
			c0.414-0.427,0.58-1.071,0.978-1.512c0.527,0.883,2.299,0.845,2.797,1.909c0.021,0.064,0.059-0.021,0.144-0.006
			c0.196,0.247,0.21,0.68,0.554,0.779c0.31,1.037,1.229,1.446,1.44,2.576c0.153,0.052,0.03-0.143,0.185-0.095
			c0.07,0.057,0.076,0.25,0.012,0.311c0.082-0.001,0.162-0.004,0.242-0.008c0.004,0.076-0.033,0.117-0.09,0.137
			c0.428,0.534,0.861,1.166,1.116,1.742c-0.139,0.322-0.092,0.804-0.235,1.122C70.604,52.129,69.998,52.596,70.116,53.179z
			 M71.406,38.184c-0.146,0.056-0.107,0.009-0.282,0.011c0.067,0.701-0.325,1.596,0.229,1.999c-0.095,0.173,0.045,0.291-0.027,0.447
			c-0.061,0.062-0.227,0.036-0.282,0.099c0.159,0.646-0.032,1.046-0.071,1.563c-0.029,0.355,0.176,0.828-0.096,1.031
			c-0.152-0.18-0.061-0.469-0.223-0.705c-0.23-0.067-0.25,0.037-0.473,0.062c0.062-0.288,0.051-0.564-0.225-0.793
			c-0.148,0.025-0.159,0.175-0.325,0.191c0.062-0.433-0.146-0.594-0.226-0.882c-0.2,0-0.141,0.224-0.373,0.191
			c0-0.313-0.092-0.678-0.368-0.833c-0.106-0.008-0.047,0.132-0.134,0.138c-0.354-0.071-0.172-0.694-0.508-0.694
			c-0.178-0.02-0.074,0.195-0.18,0.232c-0.226-0.097-0.21-0.411-0.123-0.619c-0.15-0.233-0.291-0.084-0.422,0.061
			c-0.324-0.273-0.031-0.649-0.326-0.971c0.529-0.982,1.34-1.723,1.823-2.745c0.499-0.381,0.743-0.984,1.069-1.516
			c0.318-0.268,0.548-0.61,0.666-1.05c0.242-0.135,0.416-0.326,0.592-0.515c0.057-0.009,0.086,0.008,0.098,0.041
			c-0.199,0.446,0.127,0.773,0.157,1.423c-0.177-0.038-0.147,0.1-0.231,0.143c0.172,0.458,0.22,0.674,0.237,1.062
			c-0.292,0.091-0.214,0.508-0.065,0.672c-0.049,0.458-0.082,0.83-0.129,1.341c-0.006,0.098,0.166,0.016,0.238,0.036
			C71.396,37.775,71.384,37.962,71.406,38.184z M75.721,33.823c0.496,0.492,0.771,0.967,1.201,1.469
			c0.143,0.028,0.087-0.124,0.232-0.098c-0.096,0.488,0.169,0.882,0.611,0.957c0.004,0.135,0.014,0.268,0.017,0.403
			c-0.228,0.186-0.569,0.277-0.642,0.605c-0.189-0.015-0.539,0.178-0.545,0.466c-0.557-0.054-0.49,0.433-0.927,0.483
			C75.715,36.678,75.787,35.178,75.721,33.823z M74.951,49.822c0.074-0.138,0.289-0.171,0.316-0.324
			c0.037-0.225-0.115-0.438-0.305-0.479c0.133-0.908,0.232-2.407,0.314-3.625c0.041-0.659,0.006-1.52,0.638-1.679
			c0.151-0.562,0.871-0.64,1.087-1.154c0.214-0.016,0.305-0.139,0.462-0.199c0.005-0.18,0.136-0.255,0.125-0.448
			c0.481,0.078,0.578-0.185,0.595-0.513c0.109-0.008,0.141,0.071,0.287,0.034c0.375-0.318,0.803-0.59,1.096-0.981
			c0.801,0.256,0.506,1.424,1.07,1.744c-0.043,0.513,0.276,1.005,0.487,1.41c-0.071,0.458,0.229,0.864,0.344,1.367
			c0.171,0.722,0.072,1.571,0.517,2.033c-0.01,0.152-0.129,0.204-0.076,0.405c-1.312,0.714-2.436,1.349-3.555,2.19
			c-1.254,0.525-1.861,1.471-3.086,2.083c-0.103,0.167-0.117,0.409-0.459,0.374C75.008,51.332,74.637,50.409,74.951,49.822z
			 M73.986,25.684c0.088,0.105,0.356,0.035,0.35,0.342C74.09,26.042,74.045,25.859,73.986,25.684z M81.927,65.166
			c-0.159,0.133-0.124,0.207-0.075,0.448c-0.062,0.003-0.127,0.005-0.188,0.009c-0.344,0.7-0.363,1.686-0.604,2.477
			c-0.224,0.006-0.232,0.197-0.367,0.279c-0.072,0.607-0.367,1.025-0.545,1.54c0.211,0.356-0.188,0.585-0.197,0.988
			c-0.148,0.021-0.229-0.095-0.331,0.015c-0.21,0.543-0.892,0.812-0.788,1.5c-0.107,0.104-0.18-0.09-0.381-0.029
			c-0.086,0.068-0.081,0.215-0.225,0.231c0.035,0.194,0.135,0.325,0.168,0.528c-0.154,0.115-0.271-0.144-0.438-0.159
			c-0.229,0.1-0.31,0.331-0.254,0.677c-0.146,0.012-0.231-0.044-0.333-0.072c-0.277,0.199-0.282,0.371-0.305,0.769
			c-0.174,0.013-0.256-0.079-0.289-0.212c-0.215,0.087-0.141,0.423-0.26,0.591c-0.4-0.052-0.423,0.229-0.549,0.422
			c-0.168,0.04-0.203-0.042-0.287-0.076c-0.189,0.163-0.328,0.371-0.351,0.683c-0.177,0.052-0.14-0.105-0.29-0.08
			c-0.137,0.037-0.062,0.26-0.223,0.279c-0.168-0.097-0.178-0.141-0.434-0.074c0.016-2.178-0.213-4.586-0.054-6.646
			c0.295-0.303,0.762-0.453,0.91-0.883c0.257,0.01,0.309-0.16,0.513-0.196c0.438-0.695,1.46-0.88,1.921-1.549
			c0.086-0.007,0.104,0.05,0.192,0.035c0.445-0.59,1.516-0.727,1.878-1.497c0.36,0.112,0.582-0.115,0.649-0.381
			c0.711-0.037,1.051-0.738,1.66-1.005C82.283,64.297,81.586,64.676,81.927,65.166z M82.582,56.353
			c0.01,0.189-0.055,0.269,0.064,0.398c-0.375,0.499,0.15,1.751-0.686,1.679c0.075-0.123,0.141-0.251,0.173-0.41
			c-0.202-0.031-0.294,0.402-0.5,0.509c-0.335-0.08-0.512,0.209-0.694,0.386c-0.084-0.038-0.092-0.153-0.149-0.218
			c0.04,0.396-0.569,0.436-0.776,0.743c-0.145,0.025-0.134-0.106-0.195-0.169c-0.018,0.051-0.034,0.179-0.227,0.186
			c0.119,0.273-0.318,0.616-0.365,0.326c0.015,0.324-0.367,0.309-0.453,0.552c-0.09-0.01-0.34-0.127-0.276,0.101
			c-0.058-0.006-0.044-0.08-0.054-0.134c-0.219,0.427-0.692,0.628-1.049,0.933c-0.16,0.056-0.078-0.131-0.105-0.217
			c-0.141,0.278-0.252,0.582-0.587,0.691c-0.015-0.07,0.041-0.079,0.041-0.135c-0.16,0.174-0.195,0.458-0.548,0.468
			c-0.043-0.166,0.048-0.216,0.035-0.358c-0.205,0.185-0.121,0.611-0.397,0.729c-0.144,0.052-0.089-0.098-0.104-0.172
			c-0.182,0.371-0.694,0.703-1.14,0.979c-0.169-1.154,0.104-2.943-0.084-4.055c0.116-0.369,0.015-0.808,0.188-1.078
			c0.457,0.051,0.375-0.464,0.785-0.566c0.062,0.028,0.09,0.094,0.101,0.174c0.153-0.807,0.973-1.041,1.351-1.658
			c0.077-0.015,0.084,0.039,0.146,0.039c0.104-0.119,0.196-0.252,0.215-0.453c0.461,0.026,0.467-0.338,0.593-0.604
			c0.092-0.001,0.062,0.12,0.19,0.084c0.532-0.479,1.298-0.764,1.692-1.361c0.146-0.01,0.229,0.044,0.336,0.077
			c0.346-0.638,1.09-0.822,1.705-1.136c-0.178,0.103,0.062,0.052,0.012,0.267c0.078-0.021,0.147-0.267,0.033-0.314
			c0.088,0.01,0.117-0.143,0.129-0.316l0.332-0.012c0.025,0.099,0.104,0.224,0.014,0.31c0.14-0.049,0.078-0.272,0.124-0.405
			c0.274,0.477-0.025,1.082,0.151,1.376c0.045,0.732-0.037,0.989-0.213,1.614c0.131-0.02,0.053-0.137,0.182-0.231
			c0.106,0.236-0.026,0.425,0.076,0.665c-0.205,0.008-0.082,0.711-0.199,0.813C82.492,56.417,82.49,56.343,82.582,56.353z"/>
		<path fill="#221F1F" d="M50.73,22.75c0.043,0.079-0.094,0.143-0.008,0.183c0.008-0.018,0.005-0.045,0.036-0.045
			c0.004,0.138-0.08,0.27-0.169,0.405l0.397-0.013C50.905,23.097,50.969,22.859,50.73,22.75z"/>
	</g>
	<path fill="#221F1F" d="M79.382,83.802c-0.012,0.032-0.012-0.062-0.034-0.075c-0.01-0.008-0.176,0.097-0.146,0.172l-1.938-5.938
		l2.053-0.669c-0.438,0.33-1.004,0.467-1.527,0.726c0.049,0.182,0.125,0.391,0.16,0.606c0.012,0.021,0.023,0.006,0.035,0.002
		c0.139,0.419,0.295,0.992,0.502,1.442c0.045,0.242,0.182,0.472,0.184,0.65c0.055,0.098,0.15,0.336,0.143,0.441
		c0.127,0.225,0.109,0.436,0.215,0.654c0.007,0.035,0.013,0.067,0.013,0.103c0.074,0.093,0.049,0.21,0.108,0.347
		c0.024-0.008-0.012-0.024-0.004-0.053c0.084,0.242,0.14,0.545,0.24,0.77c0.029,0.068,0,0.082,0.016,0.138
		c0.021-0.017,0.058,0.071,0.089,0.088c0,0.06-0.05-0.011-0.068-0.008c0.068,0.157,0.108,0.293,0.031,0.344
		c-0.015-0.017-0.031-0.022-0.029-0.06c-0.021,0.047,0.022,0.16-0.008,0.199c-0.039,0.01-0.033-0.074-0.06-0.102
		C79.342,83.634,79.352,83.707,79.382,83.802"/>
</g>
</svg>
