<?xml version="1.0" encoding="utf-8"?>
<!-- Generator: Adobe Illustrator 16.0.0, SVG Export Plug-In . SVG Version: 6.00 Build 0)  -->
<!DOCTYPE svg PUBLIC "-//W3C//DTD SVG 1.1//EN" "http://www.w3.org/Graphics/SVG/1.1/DTD/svg11.dtd">
<svg version="1.1" id="Layer_1" xmlns="http://www.w3.org/2000/svg" xmlns:xlink="http://www.w3.org/1999/xlink" x="0px" y="0px"
	 width="435px" height="390px" viewBox="0 0 435 390" enable-background="new 0 0 435 390" xml:space="preserve">
<path fill="#231F20" d="M58.545,31.257H34.432c-1.855,0-3.206-1.511-3.206-3.186V9.786c0-1.676,1.351-3.186,3.206-3.186h74.886
	c1.85,0,3.203,1.51,3.203,3.186v18.286c0,1.674-1.354,3.186-3.203,3.186h-24.12v89.561c0,1.68-1.521,3.185-3.209,3.185H61.753
	c-1.685,0-3.208-1.504-3.208-3.185V31.257z"/>
<path fill="#F7AC9D" d="M217.913,4.923c33.734,0,60.718,27.002,60.718,60.546c0,33.548-26.983,60.213-60.718,60.213
	c-33.729,0-60.544-26.666-60.544-60.213C157.369,31.925,184.183,4.923,217.913,4.923z M217.913,98.848
	c18.557,0,33.734-15.092,33.734-33.378c0-18.448-15.178-33.71-33.734-33.71c-18.382,0-33.561,15.262-33.561,33.71
	C184.352,83.755,199.531,98.848,217.913,98.848z"/>
<path fill="#5898B7" d="M314.642,9.786c0-1.676,1.513-3.186,3.201-3.186h20.745c1.857,0,3.205,1.51,3.205,3.186v67.929
	c0,11.741,8.768,21.133,20.745,21.133c12.146,0,21.075-9.393,21.075-21.133V9.786c0-1.676,1.353-3.186,3.207-3.186h20.747
	c1.688,0,3.201,1.51,3.201,3.186v69.271c0,25.494-21.582,46.626-48.23,46.626c-26.479,0-47.896-21.132-47.896-46.626V9.786z"/>
<path fill="#F7AC9D" d="M75.332,134.62c16.866,0,29.345,5.197,40.81,15.598c1.522,1.342,1.522,3.355,0.172,4.696l-13.159,13.585
	c-1.176,1.178-3.031,1.178-4.217,0c-6.234-5.532-14.5-8.555-22.76-8.555c-19.069,0-33.059,15.771-33.059,34.553
	c0,18.613,14.166,34.043,33.224,34.043c7.922,0,16.527-2.85,22.595-8.045c1.187-1.008,3.377-1.008,4.389,0.162l13.154,13.926
	c1.183,1.172,1.013,3.35-0.167,4.525c-11.468,11.07-25.975,16.271-40.981,16.271c-33.735,0-60.89-26.668-60.89-60.211
	C14.442,161.624,41.597,134.62,75.332,134.62z"/>
<path fill="#E9B83E" d="M167.406,139.986c0-1.676,1.521-3.188,3.207-3.188h20.064c1.859,0,3.205,1.512,3.205,3.188v42.266h48.238
	v-42.266c0-1.676,1.346-3.188,3.201-3.188h20.072c1.686,0,3.199,1.512,3.199,3.188v111.028c0,1.682-1.514,3.189-3.199,3.189h-20.072
	c-1.855,0-3.201-1.508-3.201-3.189v-44.109h-48.238v44.109c0,1.682-1.346,3.189-3.205,3.189h-20.064
	c-1.686,0-3.207-1.508-3.207-3.189V139.986z"/>
<path fill="#231F20" d="M290.198,140.323c-0.682-2.348,0.669-4.025,3.033-4.025h19.733c1.347,0,2.696,1.174,3.034,2.349
	l14.502,56.856h0.677l26.143-59.038c0.507-1.005,1.513-1.845,2.867-1.845h3.038c1.516,0,2.528,0.84,2.864,1.845l26.145,59.038h0.671
	l14.503-56.856c0.338-1.175,1.686-2.349,3.035-2.349h19.735c2.362,0,3.708,1.678,3.04,4.025L401.34,253.03
	c-0.343,1.342-1.688,2.35-3.038,2.35h-2.697c-1.182,0-2.362-0.844-2.866-1.844l-30.867-68.6h-0.504l-30.696,68.6
	c-0.506,1-1.688,1.844-2.864,1.844h-2.702c-1.351,0-2.698-1.008-3.03-2.35L290.198,140.323z"/>
<path fill="#5898B7" d="M72.789,264.901c33.732,0,60.718,27.006,60.718,60.551s-26.985,60.211-60.718,60.211
	c-33.726,0-60.548-26.666-60.548-60.211S39.063,264.901,72.789,264.901z M72.789,358.829c18.556,0,33.732-15.094,33.732-33.377
	c0-18.451-15.177-33.711-33.732-33.711c-18.376,0-33.56,15.26-33.56,33.711C39.229,343.735,54.413,358.829,72.789,358.829z"/>
<path fill="#A42222" d="M217.917,264.901c33.727,0,60.711,27.006,60.711,60.551s-26.984,60.211-60.711,60.211
	c-33.735,0-60.547-26.666-60.547-60.211S184.182,264.901,217.917,264.901z M217.917,358.829c18.551,0,33.727-15.094,33.727-33.377
	c0-18.451-15.176-33.711-33.727-33.711c-18.385,0-33.561,15.26-33.561,33.711C184.357,343.735,199.533,358.829,217.917,358.829z"/>
<path fill="#E9B83E" d="M320.813,269.769c0-1.678,1.343-3.189,3.03-3.189h41.155c32.551,0,59.199,26.332,59.199,58.535
	c0,32.539-26.648,58.871-59.199,58.871h-41.155c-1.688,0-3.03-1.508-3.03-3.188V269.769z M363.311,359.163
	c19.058,0,32.886-14.93,32.886-34.049c0-18.951-13.828-33.877-32.886-33.877h-16.189v67.926H363.311z"/>
</svg>
